<?xml version="1.0" encoding="UTF-8"?>
<svg id="Layer_1" data-name="Layer 1" xmlns="http://www.w3.org/2000/svg" viewBox="0 0 418.22 184.72">
  <defs>
    <style>
      .cls-1 {
        stroke-width: .84px;
      }

      .cls-1, .cls-2, .cls-3, .cls-4 {
        stroke-miterlimit: 10;
      }

      .cls-1, .cls-5, .cls-6, .cls-4, .cls-7 {
        fill: #231f20;
      }

      .cls-1, .cls-4 {
        stroke: #231f20;
      }

      .cls-2 {
        stroke-width: .89px;
      }

      .cls-2, .cls-3 {
        fill: #4474ba;
        stroke: #4474ba;
      }

      .cls-5 {
        font-family: SegoeUI-Light, 'Segoe UI';
        font-size: 42px;
        letter-spacing: .1em;
      }

      .cls-5, .cls-6 {
        font-weight: 300;
      }

      .cls-6 {
        font-family: SegoeUI-Semilight, 'Segoe UI';
        font-size: 22.86px;
        letter-spacing: .1em;
      }

      .cls-3 {
        stroke-width: .85px;
      }

      .cls-4 {
        stroke-width: .89px;
      }

      .cls-8 {
        fill: #010101;
      }
    </style>
  </defs>
  <path class="cls-3" d="M194.68,49.89c-9.49-9.74-18.63-16.21-25.35-20.33-10.84-6.65-18.23-8.96-20.43-9.62-5.17-1.54-12.25-3.57-21.45-2.65-5.28,.53-9.57,1.86-12.59,3.04,.8,.32,1.58,.72,2.33,1.2,.22,.14,.44,.28,.65,.43l77.14,28.6c-.1-.23-.19-.46-.3-.68Z"/>
  <path class="cls-2" d="M26.42,52.19c.53-.48,6.51,6.99,17.17,15.63,11.68,9.48,23.84,19.33,40.65,21.68,6.94,.97,23.55,3.28,36.45-8.17,9.01-8,16.09-22.03,12.62-36.95-1.8-7.73-5.89-13.42-9.71-17.28-1.75-2.18-4-4.01-6.27-5.52-.1-.06-.19-.12-.29-.18l79.01,30.08c-9.17,16.54-19.8,26.82-26.99,32.69-2.97,2.43-7.49,6.08-14.02,9.59-16.39,8.82-31.81,9.4-38.9,9.59-5.23,.14-39.21,.54-67.64-23.81-14.06-12.04-22.78-26.73-22.08-27.36Z"/>
  <g>
    <path class="cls-1" d="M105.52,81.78c.76,.48,1.54,.86,2.33,1.18-3.02,1.16-7.3,2.46-12.58,2.97-9.19,.9-16.27-1.09-21.43-2.59-2.2-.64-9.58-2.9-20.41-9.39-6.92-4.15-16.4-10.72-26.19-20.72l77.63,28.13c.22,.14,.43,.28,.65,.42Z"/>
    <path class="cls-4" d="M196.54,51.08s0-.07,0-.11c0-.09-.01-.18-.02-.27-.01-.06-.02-.13-.04-.22-.02-.12-.06-.35-.1-.61-2.07-4.17-10.06-15.82-21.69-25.69C146.11-.06,111.95,.33,106.7,.47c-7.13,.19-22.62,.77-39.1,9.56-6.56,3.5-11.11,7.14-14.09,9.56-7.22,5.85-17.91,16.09-27.12,32.57l79.41,29.97c-.1-.06-.2-.11-.29-.18-2.29-1.51-4.55-3.32-6.3-5.5-3.84-3.85-7.95-9.52-9.76-17.22-3.49-14.87,3.63-28.85,12.68-36.82,12.96-11.41,29.66-9.1,36.63-8.14,16.9,2.33,29.12,12.15,40.86,21.59,9.51,7.64,15.29,14.33,16.85,15.41,.02-.07,.05-.13,.08-.2Z"/>
  </g>
  <g>
    <g>
      <text class="cls-5" transform="translate(0 148.3)"><tspan x="0" y="0">A VISION</tspan></text>
      <circle class="cls-7" cx="36.64" cy="134.15" r="3.25"/>
    </g>
    <polygon class="cls-8" points="1.99 155.29 246.01 156.19 1.99 157.1 1.99 155.29 1.99 155.29"/>
    <text class="cls-6" transform="translate(207.16 151.07)"><tspan x="0" y="0">360</tspan></text>
  </g>
</svg>