<?xml version="1.0" encoding="UTF-8"?>
<svg id="Layer_1" data-name="Layer 1" xmlns="http://www.w3.org/2000/svg" viewBox="0 0 171.33 86.57">
  <defs>
    <style>
      .cls-1 {
        stroke-width: .84px;
      }

      .cls-1, .cls-2 {
        fill: #231f20;
        stroke: #231f20;
        stroke-miterlimit: 10;
      }

      .cls-2 {
        stroke-width: .89px;
      }
    </style>
  </defs>
  <path class="cls-1" d="M79.87,81.78c.76,.48,1.54,.86,2.33,1.18-3.02,1.16-7.3,2.46-12.58,2.97-9.19,.9-16.27-1.09-21.43-2.59-2.2-.64-9.58-2.9-20.41-9.39-6.92-4.15-16.4-10.72-26.19-20.72l77.63,28.13c.22,.14,.43,.28,.65,.42Z"/>
  <path class="cls-2" d="M170.88,51.08s0-.07,0-.11c0-.09-.01-.18-.02-.27-.01-.06-.02-.13-.04-.22-.02-.12-.06-.35-.1-.61-2.07-4.17-10.06-15.82-21.69-25.69C120.45-.06,86.3,.33,81.04,.47c-7.13,.19-22.62,.77-39.1,9.56-6.56,3.5-11.11,7.14-14.09,9.56C20.63,25.44,9.95,35.67,.73,52.16l79.41,29.97c-.1-.06-.2-.11-.29-.18-2.29-1.51-4.55-3.32-6.3-5.5-3.84-3.85-7.95-9.52-9.76-17.22-3.49-14.87,3.63-28.85,12.68-36.82,12.96-11.41,29.66-9.1,36.63-8.14,16.9,2.33,29.12,12.15,40.86,21.59,9.51,7.64,15.29,14.33,16.85,15.41,.02-.07,.05-.13,.08-.2Z"/>
</svg>