<?xml version="1.0" encoding="UTF-8"?>
<svg id="Layer_1" data-name="Layer 1" xmlns="http://www.w3.org/2000/svg" viewBox="0 0 170.75 87.2">
  <defs>
    <style>
      .cls-1 {
        stroke-width: .89px;
      }

      .cls-1, .cls-2 {
        fill: #4474ba;
        stroke: #4474ba;
        stroke-miterlimit: 10;
      }

      .cls-2 {
        stroke-width: .85px;
      }
    </style>
  </defs>
  <path class="cls-2" d="M168.74,33.26c-9.49-9.74-18.63-16.21-25.35-20.33-10.84-6.65-18.23-8.96-20.43-9.62-5.17-1.54-12.25-3.57-21.45-2.65-5.28,.53-9.57,1.86-12.59,3.04,.8,.32,1.58,.72,2.33,1.2,.22,.14,.44,.28,.65,.43l77.14,28.6c-.1-.23-.19-.46-.3-.68Z"/>
  <path class="cls-1" d="M.49,35.56c.53-.48,6.51,6.99,17.17,15.63,11.68,9.48,23.84,19.33,40.65,21.68,6.94,.97,23.55,3.28,36.45-8.17,9.01-8,16.09-22.03,12.62-36.95-1.8-7.73-5.89-13.42-9.71-17.28-1.75-2.18-4-4.01-6.27-5.52-.1-.06-.19-.12-.29-.18l79.01,30.08c-9.17,16.54-19.8,26.82-26.99,32.69-2.97,2.43-7.49,6.08-14.02,9.59-16.39,8.82-31.81,9.4-38.9,9.59-5.23,.14-39.21,.54-67.64-23.81C8.5,50.88-.22,36.19,.49,35.56Z"/>
</svg>